<svg width="158" height="150" viewBox="0 0 158 150" fill="none" xmlns="http://www.w3.org/2000/svg">
<path d="M80.6445 130.662C96.2735 133.185 110.621 130.166 122.694 119.995C128.317 115.24 133.361 109.865 137.124 103.084L98.8783 124.708C97.1831 116.274 100.698 107.467 108.429 102.753C112.068 100.562 115.582 98.7014 119.386 96.7994C132.08 90.3494 140.101 81.7493 146.427 69.0558C147.006 67.8981 147.791 67.2366 148.949 67.2366C150.107 67.2366 151.058 67.9808 151.637 69.3039C161.684 90.8042 158.376 115.571 145.683 135.376C142.086 141.702 136.008 146.043 128.731 146.912C118.518 148.193 108.677 143.728 102.972 135.169C95.1158 136.823 87.2599 136.906 79.3627 135.624C77.8742 135.376 77.1713 133.763 77.4608 132.482C77.7088 131.283 78.9492 130.332 80.6445 130.58V130.662Z" fill="#192615"/>
<path d="M105.452 43.8353C106.817 44.6209 107.933 44.8276 108.926 45.8613C100.987 52.1046 92.6763 52.6008 84.2002 47.8459C80.3963 45.7372 77.0472 43.3391 73.3674 40.9823C61.6663 33.5813 50.668 31.4313 36.8583 32.1342C35.8246 32.1755 34.7909 31.8034 34.3775 31.0591C33.964 30.3149 33.7986 29.0332 34.4601 28.0822C48.0632 8.23578 71.8375 -1.43934 95.6946 0.173179C101.731 0.173179 107.065 2.4059 111.324 6.62326C119.345 14.5618 121.454 26.635 116.203 37.0131C121.495 42.8843 125.464 49.4584 128.276 56.8181C128.813 58.2653 128.648 59.671 127.242 60.4153C126.374 60.8701 124.431 60.8288 123.852 59.4643C121.454 53.6344 118.725 48.218 114.714 43.2151C109.05 36.1448 101.814 30.8111 93.2138 27.6687C86.3502 25.1466 79.1972 23.3687 71.3827 23.7821L105.411 43.8766L105.452 43.8353Z" fill="#192615"/>
<path d="M49.3862 108.956C48.6007 123.386 52.5286 134.178 60.1364 145.796C60.7566 146.747 60.5912 147.905 60.095 148.69C59.5575 149.559 58.5239 149.807 57.2008 149.683C31.7312 147.243 11.3473 130.25 1.21737 107.22C-1.55285 98.8262 0.51448 90.0607 6.30301 83.4039C11.0165 78.0288 17.4666 75.0932 24.785 74.3076C27.3898 66.5758 31.1524 59.4642 36.4861 53.3862C37.2717 52.4766 39.0909 52.9728 39.8352 53.5516C40.7034 54.2545 40.8275 55.7843 40.0419 56.9007C38.3053 59.2575 36.7342 61.4488 35.163 63.9296C28.0514 75.1759 25.6533 88.5309 28.4235 101.596C30.036 107.922 31.7312 114.083 35.5351 119.83L35.9899 76.0856C44.3833 79.1039 49.593 86.4636 49.8824 95.1877C50.0478 99.7359 49.6343 104.036 49.4276 108.873L49.3862 108.956Z" fill="#192615"/>
</svg>
