<?xml version="1.0" encoding="UTF-8"?><svg id="Layer_2" xmlns="http://www.w3.org/2000/svg" viewBox="0 0 400.79 431.16"><defs><style>.cls-1{fill:#c7e2b7;}</style></defs><path class="cls-1" d="M382.46,13.63c-1.07-3.87-.18-2.41-2.92-5.76l-3.71-1.03-1.15,1.44-3.77-2.78c-.58-.43-1.93-.63-2.73-.89-1.36,2.33-3.38,3.99-4.83,6.21-.85,1.3-3.69,7.03-3.86,8.86l-4.6,1.34-2.08,2.75-4.21-.8-4.15,5.69,2.35,2.35-2.1,4.24c-3.17.04-5.8.19-8.79.58l-2.95,1.98-.88,2.45c-2.06,1.8-3.83,3.7-5.99,5.34-5.53,4.17-6.69,4.38-13.21,6.53l-1.2,1.98c-1.75.6-3.53.75-5.4.57-1.92-.19-4.03.28-5.85-.16l-8.68-2.12c-2.34-.57-6.85-1.3-9.16-1.46l-.56-.04c-1.8-.12-5.36-.52-7.18-.99l-3.82-.97-5.92.41c-2.1.15-4.15-.2-6.24-.48l-4.34-.57-1.07,5.89-4.13,1.05c-2.31-.91-4.36-1.7-6.51-2.68-1.86-.85-3.58-2.28-5.51-2.91l-10.69-3.49c-1.09-.36-2.72.23-3.83.08-3.72-.51-7.14-1.54-10.82-2.34-2.08-.45-4.24-.31-6.23-.53-1.14-.13-4.14.97-4.44,1.13-4.55-2.01-2.18-.26-5.38-4.09-2.54.35-4.86,1.02-7.33,1.14-2.15.1-4.41.49-6.51.26-2.73-.31-5.39-.89-7.99-1.61-1.96-.54-3.77-1.61-5.53-2.4-.19-3.09.24-5.48,1.26-8.49l-10.34,2.84c-1.71-.36-3.92-.39-5.32-1.35l-3.83-2.61c-2.54-1.74-15.06-2.15-16.92-.91-1.2.8.26,4.36-.34,6.62-.59,2.22-.99,4.02-.41,6.36-1.85,5.15-3.31,3.67-4.79,5.27-2.06,2.24-4.27,4.3-5.99,6.77-1.4,2-1.52,4.62-3.5,6.35l-4.36-1.67-2.78.12-5.32-3.11-.3-3.63c-.1-1.15.03-2.16.22-3.65l-3.4.79-.76,3.02c-.4,1.59-.46,2.98-.11,4.69-1.05,1.06-2.22,2.34-3.51,3.15-1.09.69-4.41.53-7.5,3.63-1.73,1.73-1.13,8.38-1.12,10.95l-4.24,1.92-2.75-.48c-4.14,3.01-2.65,4.14-3.36,5.22l-2.24,3.42c1.16,2.25,1.94,3.95,2.64,6.37-2.05.77-4.08-1.25-6.4,1.15,1.38,1.71,2.71,3.22,4.2,4.74.83.84,1.16,1.62,1.17,2.82.03,2.95-.42,7.26-2.39,9.55-.9.17-2.63.02-3.46-.3l-2.17-2.92c-.81-1.09-2.23-1.87-3.39-2.45-1.11-.56-2.89.17-3.45,1.26l2.94,5.26c1.73.14,3.82.03,5.63-.14,2.57,1.25,2.15,1.89,3.3,4.43-.44,1.95-2.22,3.49-2.48,5.41-.4,2.99-.91,6.25-.59,9.26.5,4.7,2.81,8.93,4.12,13.41,1.02,3.47,1.55,6.72,2.3,10.44-1.06.15-2.42.23-3.33.05-2.5-2.94-3.42-6.64-4.71-10.53-.17-.53-.82-1.56-1.46-1.07-5.27,4.08-2.77,2.04-6.83,8.2l-1.88,1.51c-.14,0-.7-.02-.77.16l-.26.69c-.25.16-.73.61-.86.91l-2.88,6.75c-1,2.34-1.8,4.77-3.73,6.46l-2.67,2.33-4.55,6.01,1.13,4.64-1.52,2.84c.14,6.84-.59,4.61,2.12,10.55l-2.13,5.53c1.63,4.1,1.17,5.22,4.37,8.19l-1.85,6.43c-2.45.66-4.82,1.52-6.84,2.99l-1.53,6.8-1.69,3.35-2.27,7.9.66,4.06c.22,1.35.27,2.84-.03,4.12l-6.16,3.1-.46,4.13c-3.97,3.14-2.72,2.84-7.82,4.29l-2.85-1.9-3.67,4.78-.02,3.63c0,1.34.2,2.63.54,3.95l4.72-.69c.47.87,1.06,2.04,1.28,2.89-.82,3.41-1.42,6.44-1.86,9.91-1.01.82-1.54.33-3.18,1.06-.3.14-.38,1.14-.12,1.38.65.62,1.83,1.64,2.73,2.36.35,2.21.88,4.45.92,6.81l.09,5.92,4.51,8.31,6.53-2.3,6.67-.95,6.71-3.12c1.16-.54,2.87-.17,4.08-.2l.84.27c3.4,3.89,3.4-2.33,8.13,6.83.43.84.57,1.55-.05,2.35-2.58,3.31-.14,4.46-2.09,6.13l2.8,5.76c1.62,3.33,3.04,6.68,4.15,10.16,1.22,3.8,1.54,7.6,1.9,11.48.32,3.44-.47,16.83-1.68,19.39l-4.68,9.87c-1.64,3.46.51,7.62-.08,11.3-.83,5.11-4.21,9.41-5.9,14.28-1.37,3.97-1.47,8.2-2.48,12.17l2.01,3.9c.4.78,1.91,1.57,2.63,2.34.02.36-.21,1.16-.39,1.48-.61,1.05-.38,1.82.74,2.54l.56-1.05,3.66.34,2.86,3.96c.44-.36,1.17-1.06,1.53-.93l4.15,1.55.48,1.37c1.4.19,2.94.96,4.4.88,6.29-1.57,5.51-3.55,9.76-7.59,2.8.18,5.68,1.54,8.57,1.37,3.02-.18,5.68-2.24,8.67-2.71,1.77-.28,3.62-.67,5.29-1.22.59-.19,2,.19,2.51.59l2.55,4.21c.44.38,1.68.58,2.45.67-.08-1.8.05-3.63-.41-5.26-.71-2.54-1.46-5.05-2.48-7.44-.8-1.85-3.18-2.77-4.07-4.56-1.19-2.42-2.22-4.8-3.13-7.35l.23-3.64,1.07-13.19c1.36-.73,2.57-1.28,3.98-1.86l2.49-7.08c.34-.98.88-1.82,1.5-2.7l-3.07-3.55-.16-4.05c-.04-1.1-.11-1.96.64-2.84l-2.77-3.75c.4-1.18,1.16-2.43,1.89-3.48.25-.36-.52-1.29-.61-1.75-1.14-5.78,2.36-7.43-1.37-10.55-.01-2.09.22-4.65-.06-6.63-1-2.15-1.35-3.64-.08-5.77,1.9-3.19,3.82-6.4,6.12-9.42-.7-1.71-2.17-3.48-1.83-5.31l.68-3.64-1.55-3.4c.14-2.01,1.18-4.19.63-6.09-.76-2.64.27-4.72.51-7.14.24-2.35-2.93-3.61-4.57-4.37-3.59-1.67-4.07-2.8-4.09-6.35l-1.97-2.59c-.45-.6-.54-1.98-.75-2.81,1.25-1.93,3.02-2.78,5.01-3.73,1.73-.82,3.24-2.22,4.94-3.19,4.35-2.48,5.26-.03,11.31-9.04l4.88-1.65c.97-.33,2.02-1.57,2.95-2.13,2.07-.07,4.21-.6,6.15.04l3.92,1.29c.95.31,2.38-.11,3.19.28,1.57.75,2.89,1.68,4.56,1.92,1.59.23,3.07.87,3.93,2.24-1.44.63-2.33,1.3-3.14,2.41-.89,1.23-1.89,2.1-3.07,3.31.87.02,1.9-.31,2.33-.1.42.21.93.91,1.2,1.34l.04.61c.01.19.39.31.57.39.18.45.58,1.28.72,1.78l.36,2.75c-.88,3.42-.98,6.51-.72,10-.19.99-.72,2.87-1.37,3.72l-7.93,10.48c-.61.81-1.37,2.76-1.22,3.77.5,3.33,3.57,7.78,5.45,9.28l7.09,5.65c2.96,2.36,5.63,4.85,8.64,7.12l-.34,1.86,2.1-.44c1.76,1.01,2.5,3.18,2.75,5.16,3.1,1.85,6.87,2.01,10.33,3.03,1.69.5,3.22,1.83,4.73,2.73l1.41,3.26-2.83,7.48-1.34-.1c-.49,2.02-1.26,3.9-1.43,5.91l-.45,5.33c-.18,2.1-1.44,4.13-1.54,6.26-.1,2.01.32,4.04.52,6.14,2.51,2.89,4.46,4.11,8.04,5.8.57.27,1.82.31,2.49.51l.81,2.16,2.18-.13c3.63-.21,7.01.71,10.5,1.49,2.14.48,4.2.63,6.47.96.35-.43.82-1.35,1.21-1.67l2.45-2-3.09-3.01c-.44-7.25.72-6.71,3.46-13.1,1.36-.56,2.78-1.45,4.24-1.77l10.71-2.37c3.17-.7,6.15-1.36,9.4-1.29l3.02-2.31c2.93.44,5.54,2.43,6.5,5.18.3-.42.88-1.1,1.19-.94l2.31,1.17c.52-.41,1.17-1.11,1.26-1.58.28-1.6-2.34-1.94-3.05-2.68l-2.79-4.56c.54-.3,1.6-.61,2.2-.54l6.51,5.35c.78.64,1.41.31,2.19-.09.82-.43,1.19-.83,1.55-1.7.62-1.5.8-2.64.36-4.17-.57-1.96.93-4.07.7-5.94-.21-1.72-2.58-9.6-6.46-7.13l2.8,1.93-.19,1.49c-3.03.27-3.43,1.96-5.46.6-.23-.15-1.02-.26-1.18-.04l-.76,1c-.27.35-1.35-.32-1.56-.74-2.32-4.64-1.04-1.93-1.42-7.38-.03-.43-.94-1.05-1.23-1.34-2.1-2.11,2.16-3.78,1.64-4.89l-5.22-.05c-.71,0-2.23-.45-2.83-.83l-2.3-3.29c-.52-.75-1.7-.89-2.56-.88l-2.55-4.51c-1.53-.89-3.31-1.64-5.04-2.28-1.26-.47-3.05.19-4.31-.2l-5.16-1.64c2.03-5.81,1.76-3.58,2.09-9.53,1.78-1.58,3.11-3.11,3.94-5.38l-1.76-1.7-.28-3.29c1.69-1.27,3.42-2.61,5.28-3.38l.69.11c.17.03.19-.57.19-.65.6-.16,1.18-.36,1.95-.66-.12-.48-.32-1.35-.56-1.66-2.35-3.18-4.79-6.01-7.47-8.93-.14-4.36.12-3.57-1.23-7.81-5.06-4.17-5.75-3.79-11.77-6.13.07-2.46-4.02-10.92-5.18-12.49l-6.38-8.56-4.29-7.42c-4-3.42-5.23-2.69-10.29-3.8-2.59-5.5-5.12-9.2-3.87-15.59l1.99-.72,3.87,1.87,5.59-.38c5.16-4.66,3.2-3.03,5.77-9.15l5.12-2.08,6.55-3.68c.71-.4,1.48-1.49,2.13-2.11,2.11-.31,4.51.42,6.68-.17,9.94-2.71,8.11-3.45,14.55-8.76l9.01-7.42,4.26-4.76c.58-.65,1.95-1.02,2.72-1.49l2.35-5.07c.54-.69,1.85-1.37,2.34-2.11,2.1-3.17,3.92-6.26,6.42-9.16l8.7-2.82c.97-.32,2.54.05,3.59-.1l1.31-1.61c.59-.72,2.49-.69,3.43-.52l1.65,2.61.18,2.36,7.38,6.27,3.74-.7c1.85-5.03,4.63-10.25,4.99-15.39l-4.17-6.92c-2.44-1.13-5.02-2.38-7.56-3.11-2.31-.66-4.87.09-7.25,0-.95-.04-2.43-.45-3.16-.06-2,1.06-3.95,2.17-5.88,2.95-.47.19-1.58-.5-2.04-.49-1.49.12-3.65-.07-5.09.43l-4.21,1.48c-.3.52-.27,1.67-.12,2.35l6.07.38c1.07.07,2.41,1.15,3.47,1.74-.76,1.64-8.51,2.74-10.22,2.97-6.98-.76-13.32-1.75-20.4-.49l-2.89-.76c-2.41,2.01-5.65.52-9.11.83l-1.76,3.75c-.29.63.24,2.1.25,2.84l-2.99,3.52-5.24-1.89-4.46,2.5c-11.3-1.22-6.74.66-15.23-3.93-.59-.32-1.21-1.82-1.31-2.51l-.46-3.19-3.16,1.71-.31,1.37c-5.13,1.15-5.26.48-8.78,4.77-.86,1.04-.28,2.55-.05,3.92l-2.18.32-5.68,6.19c-1.46,1.6-2.59,3.41-3.86,5.2-.72,1.01-1.12,2.35-1.71,3.44-1.66,3.08-2.91,5.37-5.32,7.84l-3.37.7-3.3-2.94c-.34-.31-1.53-.14-2.06-.24l-6.5-1.3c-.69-.14-2.32-.02-2.96.34l-3.54,1.97c-.7.39-1.76.21-2.6.27-.62-.88-1.38-1.79-1.77-2.68l-.18-2.38-2.36-1.33-1.1-3.29,1.87-2.23-1.1-6.55-1.85-.77c-.37-1.29-1.01-2.18-2.06-3.04-3.38-2.76-.76-1-5.74-1.47.27-2.19.48-3.55.05-5.7l-4.47,2.9-2.9-.21-2.69-4.33-2.43-2.61c-3.46-3.71-5.5-10.12-6.68-15-.1-.85.38-2.41.17-3.24l-1.11-4.37,1.4-2.37-3.26-7.12c.17-1.25.31-3.16.82-4.26,1.3-2.8,3-4.94,4.89-7.31.47-1,.25-2.67.44-3.79l1.2-7.34c.26-1.58.82-3.34,1.24-4.84l6.2-5.39.84-2.25,4.45-1.79,3.13-.6,3.7-2.61c.83-.59,8.91-3.12,10.81-1.75,2.25,1.8,4.61,3.14,7.38,3.55l2.64,2.69,4.76-1.8c4.05,1.91,3.82,1.43,8.24,2.03l10.61-3.93c.21,0,.6.02.79,0l9.81-.92c1.22-.11,1.48-.81,1.53-1.61l.12-1.65c1.67-.87,3.69-1.09,5.6-.23l5.14,2.3c2.16.97,3.22,3.62,5.21,4.98,1.56-.12,3.2-.06,4.63-.49l6.44-1.95,6.19-1.2c2.14-.41,8.1.89,12,.38,3.04-.4,6.1-1.2,9.12-.62l5.17,1c1.72.33,4.14-1.38,6-.3l2.27-.92c4.35,1.34,3.81.36,7.77.76,6.2.63,9.25-1.57,13.51-.46,3.61.94,5.15,4.68,7.85,6.95l4.67,3.91c1.77.52,4.24,1.12,6.14.86l9.41-1.3,5.06.17,1.07.1c.71.07,2.16.06,2.94-.09l7.79-1.47c4.76-.9,12.95-1.55,16.71-4.3l2.5,2.37c1.22-.83,8.4-3.64,9.2-3.77l9.54-1.56c1.36-1.25,1.39-3.34,1.27-5.22l2.47-2.76.21-3c1.01-.88,2.09-1.74,3-2.62,1.26-1.23.69-3.39,1.54-4.79,3.11-5.15,8.64-6.64,12.8-10.32,3.46-3.06,6.59-6.44,9.27-10.18,1.24-1.73,1.07-4.39,1.89-6.3l1.94-4.48,2.39-.26c1.7-3.56,3.29-6.61,5.48-10.06l-4.03-2.51Z"/><path class="cls-1" d="M264.28,330.01c-1.29.42-2.13.04-3.04-.58l-2.48-1.7-1.27,1.97c-.45.7-.91,1.24-1.37,2.07l-1.47.55.07,2.05c.05,1.42,1.57,2.6,2.17,3.84.4.83.81,1.28,1.53,1.77,2.26,1.52,2.44,2.3,5.81,2.8,1.51.22,1.51-1.46,2.09-2.09l2.32-2.52c.78-.84,1.13-1.62,2.38-2.16l.88-3.19c-2.52-3.07-3.21-4.22-7.61-2.8Z"/><path class="cls-1" d="M262.83,202.37l-1.42,3.57c-.42,1.05.12,2.48.73,3,2.57-2.78,2.88-.94,3.12-3.53l.09-.97c-.04.43-.95-2.31-2.53-2.07Z"/><path class="cls-1" d="M302.13,208.96l.28,3.36c.12,1.46.59,3.39,2.22,3.33l.41-1.33c.06-.2.67.08,1.21.11-.24-.95-3.1-5.06-4.12-5.47Z"/><path class="cls-1" d="M263.94,307.67c.18-.96.23-1.52.46-1.49l.92.14,2.3.34c-.44-1.3-.8-2.04-1.31-2.9-3,1.33-2.77.05-5.55,1.91.89,1.01,2.08,1.78,3.18,1.99Z"/><path class="cls-1" d="M278.4,196.83c-1.8,1.37-3.62,3.27-4.72,5.16-.11.18-.16,1.01.04.98.2-.03.83-.08.94-.24l1.95-2.8c-.14.2,2.45-.84,2.57-1.95.04-.35-.4-1.08-.79-1.14Z"/><path class="cls-1" d="M282.79,172.5h0s-.02.02,0,0Z"/><path class="cls-1" d="M287.52,178.88l1.09-1.46c.4-.53.42-1.89.3-2.82-.36-.42-1.63-.29-2.17-.4-2.97-.63-1.42-.74-3.6-2.08-.16.18-.3.34-.35.39l.42.9c.09.19-.65.5-.86.49-2.65-.11-2.02-2.37-3.3-2.73-3.19,2.48-2.45,4.42-4.37,4.97-1.37.39.02,1.31-1.03,3.09-.7,1.2-1.89,2.34-3.04,1.77-.31-.15-.23-1.07-.43-1.35l-1.33-1.96c-.28-.41-.87-.84-.96-1.22s.25-1.21.49-1.68c.18-.36-.34-1.19-.33-1.7.02-.54,1.04-.19,1.79.25l.6-1.89c.07-.13.23-.46.23-.47,0,0-.46-.3-.5-.37l-1.67-2.75c-2.05-3.38-.56,2.13-2.89,2.72l-2.03-2.63-4.06,1.03c-1.25.32-3.68,2.11-4.14,1.52-.32-.42-.76-1.18-1.14-1.41-.38-.24-1.63-.17-1.88.21l-1.04,1.55c-.67,1-.95,2.32-2.22,2.96-1.68.85-1.86,3.68-1.8,3.54-2.02,4.67-.77,3.15-1.24,8.04l1.48.1c.68,1.17,1.56,2.62,1.83,4.01.16.83.17,1.66.62,2.06.39.35,1.87.73,2.2.31l2.17-2.79c.64-.28,1.25-.6,1.65-.98l1.97-1.86c.68-.64.62-2.01.96-2.93.91-2.47,2.84-4.33,4.21-6.5.51-.81.79-1.15,1.73-1.5.87-.33,1.59-.48,2.59-.03-1.24,1.67-.6,3.13-.23,4.88.36,1.74.13,3,.52,4.62l.6,2.47c.12,1.24-1.52,1.98-2.41,2.53-.27.17-.59.93-.88.94l-1.14.03c-.39.31-.07,1.96.51,2.01.38.03,1.45-.31,1.67,0l.8,1.17,1.48-1.06,2.73-1.5c-.16-.79-.34-1.48-.22-1.83.32-.94.28-1.97.45-2.87l.63-3.36,1.37-.35c-.04-1.14.63-1.83,1.24-1.64l1.82.57c-.13.59-.2,1.38.12,1.95.23.43.99.84,1.54,1.09l-.21,1.33c2.71-.11,2.1,1.24,3.01,1.16,1.24-.1,1.41-1.06,1.85-.77l.74.49.71-2.24c.06-.2.17-.82.33-.73l.65.35c1.47.17,3.38-4.4,2.37-5.67Z"/><path class="cls-1" d="M291.12,193.04c-.85.37-2.06.1-2.22-1.05-.47-3.26.77-1.31-.71-4.89-.43.28-.8.66-1.01.56l-.68-.34c-.66,2.4-.12.34-1.42,2.45-.47.77,1.19,1.15,1.28,2.15.08.82-2.34,2.58-.48,6.81l1.19-.94c.18-.14.6.65.75.89l2.09.34c.48-.81.98-.75,1.81-.88l.26-3c.02-.21-.54-.77-.43-.95l.51-.87c.13-.22-.7-.38-.94-.28Z"/><path class="cls-1" d="M275.63,170.38c.21-.24.16-1.69-.26-1.64-.67.08-1.37.64-1.92,1.11l1.39,4.19.79-3.67Z"/><path class="cls-1" d="M176.44,111.21c-.09.35,1.12,2.23,2.33,2.12.71-.06,1.84-.53,2.07-1.2.34-.95.17-2.11-.14-2.89-1.85-.69-4.05,1.15-4.26,1.97Z"/><path class="cls-1" d="M195.34,126.58c-.26-.31-1.19-.59-1.53-.82-2.24-1.58-2.06,1.16-5.46,1.56l-.66-1.35.28,2.34-1.75-.74c-.58.59-1.23,1.14-1.91,1.65-1.38,1.05-2.41,2.96-2.45,4.51.28-.28.51-.67.7-.67l.93.04c.19-.59,2.2-3.64,2.19-3.64l1.45.2c.39.05,1.39-.25,1.77-.04l2.86,1.53c-.12-.73-.22-.84-.54-1.59.16-.16,1.43-.32,1.96-.16.42.13.75,1.07.91,1.58.11.34,1.08.34,1.34.1.24-.22.08-.76.12-1.32.07-.93.4-2.44-.21-3.17Z"/><path class="cls-1" d="M200.59,125.07l.71-1.36c.68.81,1.4,1.57,1.93,1.03.74-.75.5-1.84.33-2.5l-2.06.84c-.36-.36-.81-.85-1.11-1.02-.29-.17-1.05.35-1.38.6l-2.47.36-.84-1.51c-.61.4-1.56,1.09-2.08,1.53l.63,1.76,2.17,1.11c1.38-1.06,2.83-1.18,4.17-.86Z"/><path class="cls-1" d="M206.74,120.62l-.55-2.28c-.71.46-1.21,3.77-1.15,4.6.04.57,3.82,2.35,3.8,1.13-.11-.88-.41-1.84-.62-2.3-.65-.29-1.37-.71-1.47-1.15Z"/><path class="cls-1" d="M220.61,117.67l.49,2.25c.65-1.08.83-1.7.78-2.35-1.3-.99-2.34-1.76-3.76-2.16.08,1.5,1.26,2.32,2.49,2.26Z"/><path class="cls-1" d="M224.98,299.3c.3-.28.56-.59.77-.62l1.18-.2-2.87-2.63c-.12,1.39.25,2.55.92,3.46Z"/><path class="cls-1" d="M219.41,302.61c-.02-.26-1.11-.53-1.27-.33-.33.42-.87,1.39-1.13,1.84l2.17.22c.18.02.7.01.62-.13l-.31-.53-.08-1.06Z"/><rect class="cls-1" x="260.75" y="209.28" width="1.37" height=".99" transform="translate(-68.13 148.61) rotate(-28.23)"/></svg>