<svg width="133" height="149" viewBox="0 0 133 149" fill="none" xmlns="http://www.w3.org/2000/svg">
<path d="M43.6922 65.3009C33.2441 80.6122 32.7502 100.521 42.1345 116.402C48.7453 127.572 59.6874 135.512 72.2632 138.476C76.3284 139.426 76.8223 145.049 73.023 146.758C71.8452 147.29 70.6294 147.822 69.4137 148.316C67.1721 149.228 64.7025 149.228 62.4609 148.316C25.4175 133.347 0.0379932 97.1012 0 56.7524V30.879C0 27.1557 2.27959 23.8123 5.73698 22.4825L62.6889 0.598394C64.7785 -0.199464 67.0581 -0.199464 69.1477 0.598394L126.024 22.4825C129.481 23.8123 131.761 27.1557 131.799 30.879V54.2449C131.799 57.5883 131.685 60.8557 131.419 64.0851C131.077 68.2264 125.606 69.5941 123.364 66.0987C116.145 54.9667 104.139 46.9501 90.7279 44.8985C72.3011 42.087 54.2544 49.8756 43.7302 65.3009H43.6922Z" fill="#192615"/>
<path d="M120.553 92.0491C120.553 112.641 103.836 129.358 83.2436 129.358C62.6512 129.358 45.9342 112.641 45.9342 92.0491C45.9342 71.4568 62.6512 54.7397 83.2436 54.7397C103.836 54.7397 120.553 71.4568 120.553 92.0491ZM110.067 92.0491C110.067 77.2317 98.0609 65.2259 83.2436 65.2259C68.4262 65.2259 56.4203 77.2317 56.4203 92.0491C56.4203 106.866 68.4262 118.872 83.2436 118.872C98.0609 118.872 110.067 106.866 110.067 92.0491Z" fill="#192615"/>
<path d="M120.876 122.146C118.815 120.083 115.471 120.082 113.408 122.144C111.345 124.205 111.344 127.549 113.405 129.612L121.569 137.782C123.631 139.845 126.975 139.846 129.038 137.785C131.101 135.723 131.102 132.379 129.041 130.316L120.876 122.146Z" fill="#192615"/>
</svg>
