<svg width="157" height="149" viewBox="0 0 157 149" fill="none" xmlns="http://www.w3.org/2000/svg">
<path d="M152.928 53.6038L101.821 49.9194L82.5077 2.7063C81.0191 -0.902101 75.9045 -0.902101 74.4542 2.7063L55.141 49.9194L4.03359 53.6038C0.140423 53.8697 -1.42448 58.7315 1.55265 61.2384L40.7134 94.1319L28.4613 143.624C27.5453 147.384 31.6675 150.385 34.9881 148.334L78.5 121.442L122.012 148.334C125.333 150.385 129.455 147.384 128.539 143.624L116.287 94.1319L155.447 61.2384C158.424 58.7315 156.86 53.9076 152.966 53.6038H152.928ZM103.806 68.3033L72.3931 108.262C71.706 109.135 70.6755 109.629 69.5686 109.667H69.4923C68.4236 109.667 67.393 109.173 66.706 108.376L53.2326 92.3846C51.9348 90.8273 52.1257 88.5483 53.6906 87.2569C55.2555 85.9655 57.5456 86.1554 58.8433 87.7127L69.4159 100.285L98.0422 63.8592C99.3017 62.2639 101.592 61.9981 103.195 63.2515C104.798 64.505 105.065 66.784 103.806 68.3792V68.3033Z" fill="#192615"/>
</svg>
